<svg width="65" height="155" viewBox="0 0 65 155" fill="none" xmlns="http://www.w3.org/2000/svg">
<path fill-rule="evenodd" clip-rule="evenodd" d="M52.8351 102.55C52.8351 102.55 41.0344 99.184 36.9209 94.1491C30.7514 86.5952 25.8108 79.1728 28.7098 77.1575C29.942 76.301 32.5171 77.7411 35.8824 82.416C37.9458 85.2822 39.584 88.6485 41.3952 91.5053C41.3952 91.5053 52.1182 98.5414 55.3777 100.509C55.3777 100.509 58.6128 99.6524 59.3971 99.9645C60.1809 100.276 60.6221 101.802 60.6221 101.802C60.6221 101.802 61.8291 102.122 62.0367 102.47C62.2199 102.777 62.1985 103.456 61.8856 103.672C61.4548 103.969 60.6497 104.266 60.6497 104.266C60.6497 104.266 59.3953 105.57 58.7784 105.905C57.7932 106.442 55.7557 105.277 54.8346 104.501C53.798 103.627 52.8351 102.55 52.8351 102.55" fill="#E6A17B"/>
<path fill-rule="evenodd" clip-rule="evenodd" d="M31.1698 123.16L21.3238 139.975L17.7448 138.152L24.8228 119.737L31.1698 123.16Z" fill="#E6A17B"/>
<path fill-rule="evenodd" clip-rule="evenodd" d="M33.8987 120.284L25.3127 115.819L24.6687 119.889C24.6687 119.889 27.3207 121.932 31.0167 123.315L33.8997 120.284H33.8987Z" fill="#966100"/>
<mask id="mask0" mask-type="alpha" maskUnits="userSpaceOnUse" x="15" y="133" width="20" height="14">
<path d="M15.9977 133.777H34.7997V146.87H15.9977V133.777Z" fill="white"/>
</mask>
<g mask="url(#mask0)">
<path fill-rule="evenodd" clip-rule="evenodd" d="M18.8197 133.777L23.7197 135.969L24.7797 134.549C24.7797 134.549 26.0677 135.194 26.9707 135.581C26.9707 135.581 22.7317 141.433 23.0817 141.82C25.1867 144.145 35.0597 144.774 34.7937 146.27C34.6697 146.968 32.1147 146.893 27.0197 146.834C21.8897 146.776 18.6207 146.893 16.7837 146.781C16.7837 146.781 15.8807 145.253 16.0097 142.674C16.1397 140.091 17.3447 136.604 18.8197 133.778" fill="black"/>
</g>
<path fill-rule="evenodd" clip-rule="evenodd" d="M33.2096 115.177C32.1736 112.692 10.0616 102.21 7.80564 100.9C5.77864 99.7227 5.59464 105.837 6.45364 107.407C8.90364 111.885 21.9166 117.715 21.9166 117.715C21.2406 120.588 20.3956 123.63 19.6676 126.403C23.5376 130.456 30.3556 132.115 30.3556 132.115C30.3556 132.115 35.7096 121.178 33.2096 115.178" fill="#9F7215"/>
<path fill-rule="evenodd" clip-rule="evenodd" d="M32.4824 47.0867C32.4824 47.0867 31.8627 43.4522 31.3155 42.5153C30.6015 41.2924 26.5766 40.5825 23.8715 42.9473C20.8554 45.5847 21.0022 48.6972 21.756 49.4367C22.9889 50.6423 26.2445 51.6677 26.2445 51.6677L32.4823 47.0877L32.4824 47.0867Z" fill="#202693"/>
<path fill-rule="evenodd" clip-rule="evenodd" d="M32.4824 47.0869L26.2445 51.6678C26.2445 51.6678 22.988 50.6425 21.7571 49.4369C21.0022 48.6974 20.8554 45.5849 23.8716 42.9475C23.8716 42.9475 23.0304 44.4086 23.1766 45.5078C23.3238 46.6081 26.122 45.8472 27.9344 46.1537C29.115 46.3527 32.4824 47.0869 32.4824 47.0869" fill="#161B6C"/>
<path fill-rule="evenodd" clip-rule="evenodd" d="M40.9584 72.2018C40.9584 72.2018 37.8232 74.3589 36.6834 78.2127C35.5431 82.0673 34.4104 85.7167 33.4499 87.0171C32.8154 87.8779 24.972 91.3376 19.9917 95C18.1569 96.3481 18.5289 97.9956 18.5289 97.9956L8.4917 95C8.4917 95 15.6859 87.3605 17.892 84.9728C24.1058 78.244 29.1013 74.7825 31.5313 73.1585C34.98 70.8564 38.7604 68.3842 38.7604 68.3842L40.9584 72.2018Z" fill="#F5C9B3"/>
<path fill-rule="evenodd" clip-rule="evenodd" d="M14.3444 87.6639C16.9774 83.7486 22.1819 77.9639 23.9747 76.6815C26.8641 74.6118 31.8922 72.867 31.8922 72.867C32.2974 73.297 32.8223 79.1938 34.1094 80.0675C35.3951 80.9415 36.4612 80.2948 36.4612 80.2948C35.5085 85.7683 35.2698 89.4229 33.8761 90.6601C32.2376 92.1171 30.3967 91.4116 28.3532 92.364C26.3113 93.3138 24.9267 94.9342 22.9054 97.3725C21.3882 96.3316 19.1997 94.1851 16.6577 90.9855C15.4016 89.4041 14.3444 87.6639 14.3444 87.6639" fill="#F1F2F2"/>
<path fill-rule="evenodd" clip-rule="evenodd" d="M36.1009 71.1482C37.1381 69.4829 38.1511 68.5184 38.1511 68.5184L41.4917 72.5C41.4917 72.5 40.4917 72 38.1511 75C38.1511 75 39.2717 74.7148 37.9492 73.516C36.4945 72.1954 36.1019 71.1482 36.1019 71.1482" fill="#E6A17B"/>
<path fill-rule="evenodd" clip-rule="evenodd" d="M47.9688 53.8019C47.9688 53.8019 52.1991 58.3489 51.2564 62.103C50.8466 63.7262 50.1727 66.4961 50.1727 66.4961C50.1727 66.4961 51.0264 67.677 51.7009 68.2116C51.7009 68.2116 51.6695 69.4217 49.6169 69.5112C49.6169 69.5112 48.3406 73.5968 47.7068 74.1854C47.0731 74.773 41.8485 73.866 39.5987 72.4377C38.2834 71.6029 35.9 68.385 35.9 68.385C35.9 68.385 29.6094 67.587 31.8163 60.7082C34.2272 53.1921 42.3159 51.9989 47.9688 53.8019" fill="#F5C9B3"/>
<path fill-rule="evenodd" clip-rule="evenodd" d="M41.7133 58.3255C43.6308 60.8325 44.1472 60.3864 44.1472 60.3864C44.1472 60.3864 44.0216 59.2944 44.5163 58.843C45.0099 58.3926 49.9046 57.9284 50.5536 57.6852C49.5188 55.5063 47.969 53.8007 47.969 53.8007C45.5099 53.0174 42.5904 52.8027 39.8772 53.4262C40.0007 55.2352 40.858 57.2086 41.7123 58.3254" fill="#E6A17B"/>
<path fill-rule="evenodd" clip-rule="evenodd" d="M25.1584 52.547C25.1584 52.547 26.7854 51.1279 30.2699 48.9171C32.3407 47.6016 33.927 46.5608 33.927 46.5608C33.927 46.5608 33.5903 46.214 32.7987 45.871C32.1839 45.6053 30.1638 46.6483 29.8093 46.8212C26.3441 48.5224 25.0578 51.0728 24.9778 51.3136C24.8358 51.7452 25.1585 52.546 25.1585 52.546" fill="#F4D600"/>
<path fill-rule="evenodd" clip-rule="evenodd" d="M47.9724 66.2806C47.9724 66.2806 48.8793 62.873 48.6557 61.4638C48.6557 61.4638 47.4866 61.7973 46.5815 63.2909C45.7162 64.7197 45.6224 65.4986 45.6224 65.4986C45.6224 65.4986 46.9402 66.1842 47.9714 66.2805" fill="white"/>
<path fill-rule="evenodd" clip-rule="evenodd" d="M38.708 74.4023C38.2536 73.8543 37.1834 72.3312 36.4365 70.1555C35.89 70.459 35.4696 71.0555 34.8866 71.4887C35.1629 72.28 35.946 74.1762 37.603 76.0494C37.9491 75.428 38.3277 74.8784 38.708 74.4023Z" fill="black"/>
<path fill-rule="evenodd" clip-rule="evenodd" d="M48.6548 61.4628C47.9066 61.9337 47.3577 62.5803 46.9568 63.2985C46.7588 63.6597 46.5556 64.0417 46.3846 64.4205C46.2062 64.7879 46.0355 65.1968 45.92 65.5337L45.918 65.5336L45.7599 65.2341C46.4333 65.6644 47.1669 66.0761 47.9744 66.2647C47.9781 66.2659 47.9812 66.2683 47.9832 66.2715C47.9852 66.2748 47.986 66.2786 47.9854 66.2824C47.985 66.2894 47.9778 66.294 47.9707 66.2946C47.1235 66.291 46.2978 66.0533 45.4861 65.7632C45.4356 65.7453 45.3922 65.7115 45.3626 65.6668C45.333 65.6221 45.3188 65.5689 45.322 65.5154L45.3271 65.4626L45.3273 65.4586C45.3684 64.9351 45.5388 64.5312 45.7243 64.1092C45.923 63.7025 46.1565 63.3138 46.4221 62.9473C46.7104 62.5842 47.0228 62.2365 47.41 61.9833C47.7854 61.7244 48.2098 61.5204 48.6558 61.4639" fill="#161B24"/>
<path fill-rule="evenodd" clip-rule="evenodd" d="M48.6548 61.4627C48.8107 62.4453 48.5217 64.1295 48.0503 65.9885C48.0503 65.9885 47.7136 65.869 47.5586 64.9586C47.4133 64.1049 48.2119 61.6406 48.2119 61.6406L48.6548 61.4627V61.4627Z" fill="#161B24"/>
<path fill-rule="evenodd" clip-rule="evenodd" d="M49.2199 70.7043C49.2199 70.7043 49.06 71.1859 48.9543 71.4743C48.9543 71.4743 45.5439 70.6334 45.2821 70.1176C45.0869 69.7317 44.86 68.659 44.86 68.659C44.86 68.659 45.2186 69.0782 45.6918 69.6112C45.9703 69.9247 49.2199 70.7043 49.2199 70.7043ZM35.2615 62.8461C35.2127 62.8233 35.2287 62.7531 35.284 62.7493C35.7364 62.7212 36.7063 62.7338 37.2183 62.9755C37.7176 63.2105 37.6778 64.287 37.591 64.5946C37.5118 64.8765 36.7773 64.4447 36.7696 64.8749C36.7626 65.172 37.2079 65.5101 37.3697 65.6236C37.3756 65.6275 37.3804 65.633 37.3835 65.6395C37.3866 65.6459 37.3879 65.6531 37.3873 65.6602C37.3867 65.6673 37.3841 65.6742 37.38 65.68C37.3758 65.6858 37.3702 65.6904 37.3637 65.6933C37.1066 65.8088 36.1438 66.1792 35.8027 65.4034C35.6023 64.9511 36.1058 64.347 36.5382 63.7598C36.6698 63.5791 35.9175 63.1432 35.2615 62.8451" fill="#E6A17B"/>
<path fill-rule="evenodd" clip-rule="evenodd" d="M50.2853 60.3673C50.2853 60.3673 49.7922 61.1043 49.5744 61.1639C49.4523 61.1969 48.0491 60.5855 47.4726 60.6115C46.9475 60.6344 46.0183 60.6451 46.0183 60.6451C46.0183 60.6451 46.673 60.1989 47.5376 59.9331C48.2616 59.7102 50.2853 60.3673 50.2853 60.3673V60.3673ZM40.025 66.6534L39.2308 65.3618C39.2308 65.3618 39.3458 62.8342 38.8142 62.1496C37.8142 60.8652 35.0768 61.0906 34.2427 61.5035C33.4077 61.9163 33.5206 65.8292 34.9794 67.0248C36.2402 68.0588 37.4615 67.6361 37.4615 67.6361C37.4615 67.6361 37.0537 73.6907 33.8053 76.3959C30.5548 79.101 28.3056 79.2853 28.3056 79.2853C28.3056 79.2853 18.3776 77.7436 16.1132 67.7254C16.1132 67.7254 22.4638 65.7702 24.5618 64.6777C26.6619 63.5863 22.6516 56.2543 23.5868 54.3949C24.5219 52.5344 30.3695 44.9832 37.9295 46.1756C45.4886 47.3679 46.049 50.0455 47.8445 51.3626C49.4112 52.5123 50.5709 52.7942 50.9804 52.989C51.0009 52.9981 51.0191 53.0116 51.0338 53.0286C51.0485 53.0455 51.0593 53.0655 51.0654 53.087C51.0715 53.1086 51.0728 53.1312 51.0692 53.1534C51.0656 53.1755 51.0572 53.1966 51.0445 53.2151C50.7748 53.6393 49.974 54.8514 49.2591 55.4744C48.0856 56.4958 43.5211 56.4441 43.3491 57.4849C43.2522 58.0733 44.3738 60.3113 44.0707 61.0021C43.5516 62.1913 42.2394 63.0304 41.1247 64.3357C39.8556 65.8184 40.025 66.6544 40.025 66.6544" fill="#202693"/>
<path fill-rule="evenodd" clip-rule="evenodd" d="M32.8667 125.009L23.5597 139.975L19.9807 138.152L26.5207 121.585L32.8667 125.009Z" fill="#F5C9B3"/>
<path fill-rule="evenodd" clip-rule="evenodd" d="M35.7508 121.978L27.1638 117.514L26.5208 121.584C26.5208 121.584 29.1728 123.627 32.8678 125.009L35.7508 121.978Z" fill="#9F7215"/>
<path fill-rule="evenodd" clip-rule="evenodd" d="M20.8258 134.162L25.7258 136.354L27.0148 134.549C27.0148 134.549 28.3048 135.194 29.2078 135.58C29.2078 135.58 24.9678 141.432 25.3178 141.82C27.4228 144.145 37.2968 144.773 37.0308 146.27C36.9068 146.968 34.3508 146.892 29.2568 146.834C24.1268 146.776 20.8568 146.892 19.0198 146.78C19.0198 146.78 18.1178 145.252 18.2468 142.673C18.3758 140.093 19.5818 136.603 20.8258 134.163" fill="#21212E"/>
<path fill-rule="evenodd" clip-rule="evenodd" d="M5.49178 113.935C3.83178 111.51 4.7268 103.855 6.9918 100.5H19.9917C19.9917 100.5 42.2638 104.942 41.6218 113.935C41.2528 119.095 31.9758 133.885 31.9758 133.885C31.9758 133.885 25.1578 132.227 21.2878 128.173C21.2878 128.173 22.3857 124.501 23.4917 121C23.4917 121 8.90278 118.914 5.49178 113.935Z" fill="#E8C012"/>
<path fill-rule="evenodd" clip-rule="evenodd" d="M34.2428 61.5036C33.4077 61.9174 33.5206 65.8293 34.9794 67.0259C36.2402 68.0599 37.4615 67.6352 37.4615 67.6352C37.4615 67.6352 37.0536 73.6918 33.8053 76.396C30.5548 79.1011 28.3056 79.2855 28.3056 79.2855C28.3056 79.2855 18.3776 77.7448 16.1132 67.7255C16.1132 67.7255 20.5048 69.6204 22.8542 70.2401C25.5764 70.9603 29.3677 67.8706 30.3196 67.6217C31.4839 67.318 32.3818 67.031 32.3818 67.031C32.3818 67.031 31.6417 63.9074 32.5118 62.6743C32.8705 62.166 34.2418 61.5035 34.2418 61.5035L34.2428 61.5036ZM38.8142 62.1497C39.3459 62.8333 39.2308 65.3619 39.2308 65.3619L40.025 66.6546C40.025 66.6546 39.8556 65.8185 41.1248 64.3348C42.2393 63.0316 43.5506 62.1913 44.0707 61.0022C44.3728 60.3114 43.2522 58.0735 43.3491 57.4851C43.5211 56.4442 48.0857 56.495 49.2581 55.4745C49.974 54.8515 50.7748 53.6394 51.0446 53.2142C51.0572 53.1958 51.0657 53.1748 51.0692 53.1527C51.0728 53.1307 51.0715 53.1081 51.0654 53.0866C51.0593 53.0651 51.0485 53.0452 51.0338 53.0284C51.0191 53.0115 51.0009 52.9982 50.9804 52.9892C50.571 52.7934 49.4112 52.5124 47.8435 51.3626C47.8435 51.3626 48.3192 52.7422 47.7428 52.9244C47.1664 53.1067 42.0527 52.205 40.746 52.3193C39.4403 52.4337 40.0603 57.8401 39.911 58.9413C39.8305 59.5397 38.8142 62.1497 38.8142 62.1497" fill="#161B6C"/>
<mask id="mask1" mask-type="alpha" maskUnits="userSpaceOnUse" x="20" y="77" width="40" height="41">
<path d="M30.424 77L59.3964 108.413L49.4642 117.724L20.4918 86.3116L30.424 77Z" fill="white"/>
</mask>
<g mask="url(#mask1)">
<path fill-rule="evenodd" clip-rule="evenodd" d="M50.3145 108.03C50.3145 108.03 36.797 103.843 33.4158 100.32C30.9949 97.7984 28.7712 92.5782 27.7018 88.5046C26.6095 84.3429 26.1487 80.2272 28.0275 79.3578C29.4506 78.6995 31.6736 79.982 33.5832 85.7426C34.7804 89.3531 36.1228 93.7412 37.6927 96.9861C37.6927 96.9861 46.9562 102.641 51.8807 105.421C51.8807 105.421 55.6854 104.918 56.4375 105.296C57.1898 105.672 57.4331 107.265 57.4331 107.265C57.4331 107.265 58.6138 107.682 58.7785 108.053C58.9232 108.38 58.8103 109.073 58.465 109.271C57.9903 109.543 57.135 109.788 57.135 109.788C57.135 109.788 55.6894 111.029 55.0195 111.328C53.9485 111.805 52.6289 111.093 51.8977 110.146C50.9547 108.923 50.3159 108.03 50.3159 108.03" fill="#F5C9B3"/>
</g>
<path fill-rule="evenodd" clip-rule="evenodd" d="M35.4456 115.177C34.4096 112.692 12.0577 110.586 10.4917 108.5C9.9917 107.833 19.4917 100.5 19.4917 100.5V95H7.9917L7.9917 98C5.7267 101.354 2.83071 111.075 4.49171 113.5C7.90171 118.48 22.9917 121 22.9917 121C21.8867 124.5 21.2866 128.173 21.2866 128.173C25.1566 132.226 31.9746 133.885 31.9746 133.885C31.9746 133.885 37.9456 121.177 35.4456 115.177Z" fill="#BE9200"/>
</svg>
